<?xml version="1.0" encoding="UTF-8" standalone="no"?>
<svg xmlns:xlink="http://www.w3.org/1999/xlink" height="23.8px" width="47.25px" xmlns="http://www.w3.org/2000/svg">
  <g transform="matrix(1.0, 0.0, 0.0, 1.0, -2.85, -3.7)">
    <path d="M33.95 24.3 L48.05 24.3 Q48.8 24.3 49.45 23.75 50.05 23.1 50.1 22.4 L50.05 5.5 Q50.1 4.8 49.45 4.2 48.8 3.7 48.0 3.7 L16.8 3.7 Q15.95 3.7 15.4 4.2 14.85 4.8 14.85 5.5 L14.8 7.05 2.85 7.1 2.85 9.25 14.85 9.2 14.85 14.3 14.85 22.5 Q14.85 23.1 15.4 23.8 15.95 24.3 16.8 24.35 L33.95 24.3 M18.05 20.2 L18.25 19.85 Q18.4 19.7 18.65 19.7 L20.35 19.7 20.7 19.9 20.85 20.25 20.85 21.8 20.75 22.25 20.35 22.35 18.65 22.4 Q18.4 22.4 18.3 22.2 L18.15 21.8 18.05 20.2 M18.05 16.5 L18.3 16.15 18.65 16.05 20.3 16.05 20.75 16.2 20.85 16.55 20.9 18.1 20.7 18.5 20.35 18.65 18.65 18.65 18.25 18.5 18.15 18.1 18.05 16.5 M24.55 19.9 L24.6 20.25 24.7 21.8 24.55 22.25 24.0 22.4 22.4 22.35 22.0 22.25 21.85 21.8 21.85 20.25 Q21.85 20.0 22.0 19.9 L22.3 19.7 24.0 19.7 24.55 19.9 M28.25 19.9 L28.45 20.25 28.35 21.8 28.3 22.2 27.85 22.4 26.15 22.4 25.8 22.25 25.6 21.8 25.6 20.25 25.7 19.9 Q25.9 19.7 26.05 19.7 L27.8 19.7 Q28.1 19.7 28.25 19.9 M29.45 19.9 L29.95 19.7 31.55 19.7 31.95 19.85 32.15 20.25 32.2 21.8 32.05 22.2 31.6 22.4 29.85 22.35 29.5 22.2 29.3 21.8 29.3 20.25 Q29.3 20.0 29.45 19.9 M31.55 16.05 L32.05 16.15 32.2 16.55 32.2 18.1 31.95 18.5 31.6 18.65 29.95 18.65 29.45 18.5 29.35 18.1 29.3 16.55 29.5 16.15 29.85 16.05 31.55 16.05 M25.75 16.2 L26.05 16.05 27.8 16.0 Q28.1 16.0 28.25 16.15 L28.45 16.55 28.45 18.1 28.25 18.5 27.85 18.65 26.15 18.65 25.75 18.5 25.6 18.1 25.6 16.55 25.75 16.2 M24.55 16.2 L24.6 16.55 24.7 18.1 24.55 18.5 24.1 18.65 22.4 18.6 22.0 18.5 Q21.85 18.4 21.85 18.1 L21.85 16.55 22.0 16.2 22.3 16.0 23.95 16.05 24.55 16.2 M17.8 6.55 Q17.8 5.9 18.45 5.9 L31.65 5.9 Q31.9 5.9 32.05 6.05 L32.3 6.5 32.35 14.4 32.1 14.8 Q31.9 15.0 31.65 15.0 L18.5 15.0 Q17.8 15.05 17.8 14.45 L17.8 6.55" fill="#ffffff" fill-rule="evenodd" stroke="none"/>
    <path d="M14.85 14.3 Q12.05 16.2 11.5 16.25 11.3 16.35 10.85 17.5 10.5 18.1 10.35 19.15 L10.15 21.15 10.1 21.95 Q10.2 23.7 11.1 24.8 L11.85 25.5 12.75 26.1 13.2 26.3 16.2 27.1 18.7 27.25 21.3 27.25 23.4 27.25 29.6 27.05 Q31.85 26.65 32.7 26.05 33.65 25.5 33.95 24.7 L33.95 24.3" fill="none" stroke="#ffffff" stroke-linecap="round" stroke-linejoin="round" stroke-width="0.5"/>
  </g>
</svg>
