<?xml version="1.0" encoding="UTF-8" standalone="no"?>
<svg xmlns:xlink="http://www.w3.org/1999/xlink" height="34.0px" width="53.0px" xmlns="http://www.w3.org/2000/svg">
  <g transform="matrix(1.0, 0.0, 0.0, 1.0, 0.0, 0.0)">
    <path d="M26.4 0.1 L27.8 0.2 Q29.0 0.3 30.65 1.0 35.05 2.5 37.05 6.7 37.05 6.6 37.2 6.6 L40.05 4.85 41.55 3.85 42.6 3.2 43.1 2.85 43.45 1.65 Q43.85 0.7 44.65 0.3 L46.65 0.2 46.75 0.2 47.55 0.9 48.2 1.15 48.45 1.25 Q48.75 1.35 49.7 2.0 50.6 2.7 50.8 3.85 L50.9 4.45 Q50.9 5.95 49.4 7.3 L49.1 7.45 47.65 7.65 46.85 7.85 45.8 7.8 44.85 8.4 43.0 9.45 40.75 10.75 38.45 12.0 Q38.3 12.2 38.3 12.5 L38.15 12.35 37.7 14.1 Q37.35 15.25 37.3 15.95 L37.3 16.75 37.05 18.9 Q36.95 19.85 36.65 20.2 L36.5 20.4 38.55 21.5 41.75 23.3 46.0 25.65 46.55 25.85 47.6 26.1 48.8 26.35 49.85 26.45 50.7 26.5 50.8 26.7 51.35 27.2 52.1 28.0 52.8 28.95 53.0 29.8 52.8 30.4 52.7 30.85 52.65 31.3 52.45 31.3 52.45 31.35 52.1 31.8 51.15 32.8 49.95 33.7 48.6 33.95 48.45 33.85 47.95 33.65 47.55 33.45 47.0 33.25 46.65 33.25 46.65 33.15 45.8 32.95 45.7 32.95 45.5 32.8 45.2 32.5 44.65 32.0 Q43.8 31.15 43.65 30.65 L42.75 29.8 40.8 28.4 38.15 26.6 35.2 24.7 35.05 24.6 34.6 26.0 33.65 27.95 Q32.8 29.35 31.25 30.6 29.65 31.85 26.75 32.0 22.4 32.3 18.95 28.05 L17.75 26.1 17.0 24.6 16.8 24.1 Q16.05 24.5 13.9 25.9 11.75 27.3 9.35 29.2 L7.8 30.5 6.4 31.85 5.6 32.65 5.0 33.1 5.0 33.15 4.9 33.15 4.85 33.3 4.7 33.35 4.15 33.55 3.3 33.35 2.15 32.5 Q1.4 31.85 0.6 30.65 L0.25 30.0 0.0 29.1 0.0 28.85 Q0.0 28.1 0.6 27.2 1.15 26.25 3.4 25.65 L3.45 25.8 3.45 25.65 3.95 25.65 5.0 25.5 6.05 25.3 7.0 25.0 8.25 24.35 10.55 22.9 13.2 21.3 15.4 19.9 15.05 18.6 14.55 16.55 14.1 14.35 13.9 12.55 12.45 11.95 9.6 10.65 6.7 9.45 5.4 8.9 4.1 9.0 Q3.2 9.05 2.25 8.1 0.8 7.05 0.95 6.15 L1.0 6.1 1.3 5.6 1.45 5.1 1.55 4.65 Q1.75 3.15 2.35 2.6 3.0 2.05 3.6 1.9 L3.65 1.9 5.75 1.8 Q6.85 1.85 7.25 2.5 L7.25 2.55 7.9 3.5 8.55 4.35 9.5 4.95 11.0 5.8 12.8 6.65 14.4 7.4 15.15 6.0 Q15.65 5.0 16.7 3.85 18.0 2.65 20.35 1.4 22.7 0.1 26.4 0.1 M28.8 14.3 Q27.95 14.95 27.95 15.85 27.95 16.8 28.8 17.5 29.65 18.2 30.9 18.2 32.1 18.2 33.0 17.5 33.9 16.8 33.9 15.85 33.9 14.95 33.0 14.3 32.1 13.65 30.9 13.65 29.65 13.65 28.8 14.3 M24.35 15.95 Q24.35 15.0 23.5 14.35 22.7 13.7 21.45 13.7 20.25 13.7 19.35 14.35 18.5 15.0 18.5 15.95 18.5 16.95 19.35 17.6 20.25 18.25 21.45 18.25 22.7 18.25 23.5 17.6 24.35 16.95 24.35 15.95 M22.25 26.1 L21.55 25.8 20.85 25.6 21.55 26.05 22.25 26.7 22.25 26.1 M22.25 25.6 L22.25 25.05 20.95 25.05 22.25 25.6 M27.95 21.15 L27.95 20.65 27.65 19.9 26.9 19.25 26.9 21.4 27.3 21.7 27.65 21.85 27.85 21.7 27.95 21.15 M24.85 20.65 L24.75 20.9 24.7 21.15 24.9 21.7 25.1 21.85 25.8 21.4 25.8 19.25 25.1 19.9 Q24.9 20.25 24.85 20.65 M27.25 26.0 L27.25 24.95 26.2 24.95 26.15 26.0 27.25 26.0 M26.15 26.5 L26.15 27.55 26.2 28.05 27.3 28.05 27.25 27.3 27.25 26.5 26.15 26.5 M25.1 26.5 L24.55 26.5 24.5 27.8 25.8 28.05 25.75 27.55 25.7 26.5 25.1 26.5 M25.8 24.95 L24.5 24.95 24.5 25.45 24.55 26.0 25.7 26.0 25.8 24.95 M23.95 24.95 L23.35 25.05 22.75 25.05 22.75 25.65 24.05 25.9 24.0 25.45 23.95 24.95 M22.7 26.95 L24.0 27.65 24.05 26.5 23.35 26.35 22.75 26.2 22.7 26.95 M31.05 25.05 L30.25 25.05 30.25 25.3 31.05 25.05 M31.05 25.6 L30.65 25.65 30.3 25.8 30.3 26.2 30.4 26.25 30.75 25.9 31.05 25.6 M29.15 24.95 L29.1 25.6 29.45 25.55 29.75 25.55 29.75 24.95 29.15 24.95 M28.55 25.65 L28.75 24.95 27.65 24.95 27.65 25.9 28.1 25.85 28.55 25.65 M27.65 26.4 L27.65 27.2 27.7 27.9 28.3 27.7 28.8 27.45 28.75 26.95 28.55 26.2 28.1 26.35 27.65 26.4 M29.8 25.95 L29.45 26.0 29.1 26.1 29.15 26.8 29.25 27.2 29.65 26.95 30.0 26.7 29.85 26.35 29.8 25.95" fill="#9d511b" fill-rule="evenodd" stroke="none"/>
  </g>
</svg>
