<?xml version="1.0" encoding="utf-8"?>
<!-- Generator: Adobe Illustrator 16.0.0, SVG Export Plug-In . SVG Version: 6.00 Build 0)  -->
<!DOCTYPE svg PUBLIC "-//W3C//DTD SVG 1.1//EN" "http://www.w3.org/Graphics/SVG/1.1/DTD/svg11.dtd">
<svg version="1.1" xmlns="http://www.w3.org/2000/svg" xmlns:xlink="http://www.w3.org/1999/xlink" x="0px" y="0px" width="32px"
	 height="32px" viewBox="0 0 32 32" enable-background="new 0 0 32 32" xml:space="preserve">
<symbol  id="dude-transit" viewBox="0 -25.1 21.25 25.118">
	<path fill-rule="evenodd" clip-rule="evenodd" fill="#FFFFFF" d="M15.5-4.2l0.75-1.05l1-3.1l3.9-2.65v-0.05
		c0.067-0.1,0.1-0.233,0.1-0.4c0-0.2-0.05-0.383-0.15-0.55c-0.167-0.233-0.383-0.35-0.65-0.35l-4.3,1.8l-1.2,1.65l-1.5-3.95
		l2.25-5.05l-3.25-6.9c-0.267-0.2-0.633-0.3-1.1-0.3c-0.3,0-0.55,0.15-0.75,0.45c-0.1,0.133-0.15,0.25-0.15,0.35
		c0,0.067,0.017,0.15,0.05,0.25c0.033,0.1,0.067,0.184,0.1,0.25l2.55,5.6L10.7-14l-3.05-4.9L0.8-18.7
		c-0.367,0.033-0.6,0.184-0.7,0.45c-0.067,0.3-0.1,0.467-0.1,0.5c0,0.5,0.2,0.767,0.6,0.8l5.7,0.15l2.15,5.4l3.1,5.65L9.4-5.6
		c-1.367-2-2.1-3.033-2.2-3.1C7.1-8.8,6.95-8.85,6.75-8.85C6.35-8.85,6.1-8.667,6-8.3C5.9-8,5.9-7.8,6-7.7H5.95l2.5,4.4l3.7,0.3
		L14-3.5L15.5-4.2z M14.55-2.9c-0.333,0.4-0.45,0.85-0.35,1.35c0.033,0.5,0.25,0.9,0.65,1.2S15.7,0.066,16.2,0
		c0.5-0.067,0.9-0.3,1.2-0.7c0.333-0.4,0.467-0.85,0.4-1.35c-0.066-0.5-0.3-0.9-0.7-1.2c-0.4-0.333-0.85-0.45-1.35-0.35
		C15.25-3.533,14.85-3.3,14.55-2.9z"/>
</symbol>
<g id="Layer_1">
</g>
<g id="Layer_2">
	<polygon fill-rule="evenodd" clip-rule="evenodd" points="22.621,21.673 14.45,23.689 9.4,20.428 8.539,12.604 23.471,12.604 	"/>
	<g>
		<polygon fill="#BCBEC0" stroke="#000000" stroke-width="0.9593" stroke-miterlimit="10" points="22.753,11.921 24.475,12.296 
			30.742,5.99 21.691,5.99 17.848,10.099 		"/>
		<polygon fill="#BCBEC0" stroke="#000000" stroke-width="0.9593" stroke-miterlimit="10" points="7.872,12.236 9.243,10.881 
			14.259,10.211 10.31,5.99 1.262,5.99 7.79,12.561 		"/>
		<path fill="#BCBEC0" stroke="#000000" stroke-width="0.9593" stroke-miterlimit="10" d="M11.237,23.18
			c0,0-3.458-1.958-3.365-2.752l0,0l-6.75,6.761h9.051l3.179-3.391C12.209,23.472,11.237,23.18,11.237,23.18z"/>
		<path fill="#BCBEC0" stroke="#000000" stroke-width="0.9593" stroke-miterlimit="10" d="M24.428,20.728l-3.639,2.452
			c0,0-1.002,0.398-1.983,0.784l3.023,3.225h9.049L24.428,20.728z"/>
	</g>
	<g>
		<g>
			<path fill-rule="evenodd" clip-rule="evenodd" d="M24.95,17.377c0.016-1.277-0.435-1.308-0.464-2.093
				c-0.015-0.391,0.033-1.491,0-2.555c-0.035-1.059-0.146-2.078-0.232-2.323c-0.174-0.496-0.372-1.31-1.858-2.559
				c-1.628-1.363-4.767-2.526-6.509-2.557c-1.743-0.028-3.774,0.844-5.347,1.86C8.974,8.167,8.596,8.604,7.986,9.475
				c-0.611,0.872-0.844,1.482-0.698,3.021c0.146,1.541,0.18,1.135,0.232,2.557c0.044,1.178-0.49,1.542-0.465,2.324
				c0.037,1.172,0.478,1.412,0.465,1.858c-0.01,0.293-0.522,0.659-0.465,1.626c0.06,0.988,0.262,1.252,2.093,2.325
				c1.187,0.698,2.585,0.96,2.556,1.396c-0.044,0.637-0.204,1.684-0.232,2.323c-0.029,0.641,0.262,0.698,0.929,0.929
				c0.668,0.234,2.235,0.728,3.952,0.698c1.715-0.028,2.44-0.378,3.253-0.698c0.813-0.319,0.929-0.608,0.929-1.161
				c0-0.552-0.463-1.683-0.463-2.091c0-0.407,1.392-0.844,3.021-1.628c1.628-0.782,1.608-1.568,1.628-2.093
				c0.033-0.986-0.466-1.22-0.466-1.626C24.254,18.441,24.94,18.306,24.95,17.377z M11.238,19.7
				c-0.813,0.029-2.556,0.029-2.556-2.323c0-3.259,1.742-3.632,3.021-3.719c1.278-0.089,1.452-0.23,2.092,0.232
				c1.147,0.835,1.074,2.314,0.697,3.486c-0.277,0.857-0.582,1.191-1.163,1.626C12.749,19.44,12.054,19.672,11.238,19.7z
				 M16.586,23.419l-0.32-1.186l-0.494,0.004l-0.351,1.182c-1.336-0.363-1.872-0.9-1.857-1.626c0.014-0.727,0.421-1.482,1.161-2.093
				c0.741-0.609,0.861-0.704,1.396-0.697c0.509,0.009,0.554,0.105,0.928,0.466c0.811,0.775,1.333,1.293,1.396,2.324
				C18.504,22.808,17.325,23.375,16.586,23.419z M20.768,19.7c-0.813-0.028-1.511-0.26-2.091-0.697
				c-0.582-0.435-0.925-0.758-1.163-1.626c-0.301-1.094-0.449-2.651,0.697-3.486c0.64-0.463,0.814-0.321,2.093-0.232
				c1.277,0.087,3.021,0.46,3.021,3.719C23.324,19.729,21.581,19.729,20.768,19.7z"/>
		</g>
	</g>
	<g>
		<g>
			<path fill-rule="evenodd" clip-rule="evenodd" fill="#FFFFFF" d="M23.324,19.054c0-0.73,0.633-0.856,0.642-1.714
				c0.015-1.176-0.4-1.205-0.428-1.929c-0.014-0.36,0.03-1.375,0-2.355c-0.031-0.976,0.151-1.916,0.072-2.142
				c-0.161-0.457-0.344-1.208-1.714-2.359c-1.501-1.257-4.395-2.329-6.001-2.356c-1.607-0.027-3.479,0.777-4.929,1.715
				C9.521,8.85,9.388,9.349,8.826,10.151c-0.564,0.805-0.778,1.367-0.645,2.786c0.134,1.42,0.166,1.045,0.214,2.356
				c0.041,1.086-0.452,1.422-0.429,2.143c0.035,1.081,0.44,1.304,0.429,1.714c-0.009,0.271-0.481,0.608-0.429,1.499
				c0.056,0.912,0.027,1.058,1.717,2.047c1.094,0.644,2.819,1.112,2.851,1.435c0.056,0.585-0.185,1.405-0.211,1.995
				s-0.258,0.643,0.357,0.855c0.617,0.217,2.063,0.672,3.645,0.644c1.581-0.026,2.238-0.377,2.999-0.644
				c0.553-0.192,0.37-0.571,0.246-1.07c-0.123-0.494-0.431-1.552-0.427-1.928c0.003-0.292,1.894-0.778,3.395-1.5
				s1.197-1.446,1.216-1.93C23.785,19.644,23.324,19.43,23.324,19.054z M11.61,19.482c-0.75,0.027-2.356,0.027-2.356-2.143
				c0-3.003,1.606-3.348,2.785-3.429s1.339-0.212,1.929,0.216c1.058,0.77,0.99,2.133,0.643,3.213c-0.255,0.792-0.536,1.1-1.072,1.5
				C13.003,19.243,12.361,19.456,11.61,19.482z M16.54,22.911l-0.295-1.093l-0.456,0.003l-0.323,1.09
				c-1.23-0.335-1.727-0.83-1.712-1.5c0.013-0.669,0.388-1.365,1.07-1.929c0.683-0.562,0.794-0.649,1.286-0.643
				c0.47,0.008,0.511,0.098,0.856,0.43c0.746,0.714,1.229,1.191,1.286,2.142C18.309,22.348,17.223,22.871,16.54,22.911z
				 M20.396,19.482c-0.75-0.026-1.393-0.239-1.928-0.643c-0.536-0.4-0.853-0.698-1.072-1.5c-0.277-1.008-0.415-2.443,0.643-3.213
				c0.591-0.428,0.752-0.297,1.93-0.216s2.785,0.426,2.785,3.429C22.753,19.51,21.146,19.51,20.396,19.482z"/>
		</g>
	</g>
	<path fill-rule="evenodd" clip-rule="evenodd" d="M14.741,23.188"/>
</g>
</svg>
