<?xml version="1.0" encoding="UTF-8" standalone="no"?>
<svg xmlns="http://www.w3.org/2000/svg" viewBox="0 0 24 24" width="24" height="24">
  <!-- Skull outline -->
  <path d="M12 2C8 2 5 5 5 9c0 2.5 1 4 1.5 5.5C6.8 15.5 7 16.5 7 17v2c0 0.5 0.5 1 1 1h2v2h4v-2h2c0.5 0 1-0.5 1-1v-2c0-0.5 0.2-1.5 0.5-2.5C18 13 19 11.5 19 9c0-4-3-7-7-7z" fill="#ffffff" stroke="#000000" stroke-width="0.5"/>
  <!-- Left eye -->
  <circle cx="9" cy="10" r="1.5" fill="#000000"/>
  <!-- Right eye -->
  <circle cx="15" cy="10" r="1.5" fill="#000000"/>
  <!-- Nose -->
  <path d="M11 13h2v2h-2z" fill="#000000"/>
</svg>
