<?xml version="1.0" encoding="UTF-8" standalone="no"?>
<svg xmlns:xlink="http://www.w3.org/1999/xlink" height="23.25px" width="136.45px" xmlns="http://www.w3.org/2000/svg">
  <g transform="matrix(1.0, 0.0, 0.0, 1.0, -0.25, -0.25)">
    <path d="M136.7 11.1 Q134.95 12.95 131.15 14.95 123.55 19.0 113.3 19.65 105.9 20.15 95.4 19.55 L87.2 19.2 78.85 19.15 Q73.75 19.3 67.3 21.25 L63.4 22.6 61.9 23.25 Q61.9 21.95 61.35 20.5 60.25 17.65 57.25 17.1 54.5 16.55 52.4 17.55 L51.25 18.35 50.9 18.7 50.05 21.1 48.85 23.5 47.2 22.5 47.75 20.65 Q48.15 18.6 47.35 17.4 46.4 16.05 45.25 15.5 L44.55 15.3 44.3 15.3 44.25 15.0 43.85 14.7 Q43.6 14.7 43.45 15.0 L43.1 15.4 41.55 15.5 39.75 15.6 10.45 19.35 3.0 20.6 2.0 20.5 0.3 16.45 0.3 15.85 0.5 15.35 0.75 15.2 1.05 15.25 1.55 15.2 1.6 14.65 1.55 14.25 2.05 13.75 2.35 13.85 2.85 13.75 2.95 13.2 2.85 12.85 3.5 12.25 3.8 12.35 4.25 12.25 4.35 11.75 4.25 11.4 4.85 10.75 5.2 10.85 5.65 10.75 5.75 10.2 5.65 9.85 6.1 9.3 7.05 9.25 Q7.3 9.05 7.2 8.55 L7.05 8.1 7.2 7.9 7.55 7.6 8.45 7.4 44.35 6.0 45.0 6.2 45.1 6.55 45.3 6.75 45.9 6.3 46.25 5.75 49.1 5.65 49.85 5.4 51.4 4.4 Q52.15 3.75 52.75 1.95 L53.2 0.25 53.6 0.3 54.3 0.4 55.15 0.95 54.0 5.65 62.05 5.35 62.2 5.7 Q62.45 6.0 62.75 5.95 L63.25 5.6 63.35 5.3 64.2 5.25 64.35 5.6 64.8 5.9 65.2 5.55 65.3 5.25 66.2 5.2 66.25 5.5 Q66.45 5.8 66.75 5.8 L67.2 5.45 67.3 5.15 68.25 5.1 68.35 5.4 68.75 5.75 Q69.1 5.7 69.25 5.4 L69.35 5.1 70.3 5.1 70.4 5.35 70.75 5.65 71.2 5.3 71.35 5.0 72.2 4.95 72.3 5.25 72.7 5.6 73.15 5.25 73.35 4.9 85.5 4.65 Q98.65 4.5 103.55 4.85 119.55 6.05 129.75 8.7 134.8 10.0 136.7 11.1" fill="#ffffff" fill-rule="evenodd" stroke="none"/>
  </g>
</svg>
